<svg xmlns:svg="http://www.w3.org/2000/svg" xmlns="http://www.w3.org/2000/svg" version="1.1" id="Layer_1" x="0" y="0" width="16" height="16" viewBox="0 0 216 216" enable-background="new 0 0 216 216" xml:space="preserve"><style>.s0{fill:#999;}</style><metadata id="metadata9312"/><defs id="defs9310"/><g id="g9284" transform="matrix(1.1393199,0,0,1.1393199,-10.258479,-16.724888)"><path d="m163.267 21.505c-21.648 0-109.005 0-109.005 0 0 0-18.109 0-18.109 24.541 0 0.096 0 0.241 0 0.347h11.302c5.554 0 10.052 5.023 10.052 11.214 0 6.2-4.498 11.214-10.052 11.214H36.152c0 4.137 0 8.592 0 13.326h11.302c5.554 0 10.052 5.024 10.052 11.214 0 6.2-4.498 11.224-10.052 11.224H36.152c0 4.069 0 8.176 0 12.265h11.302c5.554 0 10.052 5.023 10.052 11.214 0 6.2-4.498 11.225-10.052 11.225H36.152c0 4.638 0 9.131 0 13.316h11.302c5.554 0 10.052 5.023 10.052 11.214 0 6.2-4.498 11.225-10.052 11.225H36.152c0 5.274 0 8.418 0 8.418 0 0 2.094 15.418 17.459 15.418 15.369 0 40.513 0 40.513 0h72.729c0 0 19.015-0.453 19.015-19.16 0-18.696 0-137.878 0-137.878 0 0-0.954-20.337-22.601-20.337zm-3.163 70.294h-9.927v9.826h-6.649v-9.826h-8.167l0.271 0.01 0.896 2.478 1.576 4.349 16.552 45.639c1.812 4.84 2.72 8.369 2.72 10.568 0 2.295-0.858 4.387-2.565 6.296-1.707 1.909-3.771 2.864-6.181 2.864-1.408 0-2.613-0.28-3.626-0.839-1.003-0.569-1.842-1.331-2.526-2.295-0.685-0.965-1.417-2.449-2.203-4.445-0.786-1.996-1.456-3.761-2.021-5.284l-4.223-12.381H98.088l-4.229 12.65c-1.645 4.938-3.057 8.264-4.219 9.99-1.167 1.735-3.076 2.604-5.729 2.604-2.256 0-4.242-0.916-5.969-2.758-1.735-1.842-2.598-3.925-2.598-6.258 0-1.36 0.202-2.748 0.602-4.186 0.406-1.437 1.062-3.433 1.996-5.987l22.612-64.095c0.646-1.842 1.418-4.05 2.324-6.624 0.906-2.584 1.87-4.735 2.897-6.441 1.026-1.697 2.367-3.076 4.045-4.137 1.663-1.051 3.722-1.582 6.176-1.582 2.498 0 4.571 0.53 6.244 1.582 1.663 1.061 3.013 2.42 4.045 4.079 1.021 1.659 1.88 3.442 2.589 5.352 0.709 1.909 1.596 4.445 2.686 7.646l2.083 5.756v-1.31h9.883v-9.874h6.649v9.874h9.927v6.759z" id="path9286" fill="#999"/><polygon points="134.782,86.351 134.782,86.583 134.883,86.65 " id="polygon9288" fill="#999"/><path d="m46.336 155.421c4.956 0 8.977 3.838 8.977 8.582l0 0c0 4.744-4.021 8.592-8.977 8.592H30.049c-4.951 0-8.972-3.848-8.972-8.592l0 0c0-4.744 4.021-8.582 8.972-8.582h16.287zm0-35.765c4.956 0 8.977 3.848 8.977 8.592l0 0c0 4.744-4.021 8.592-8.977 8.592H30.049c-4.951 0-8.972-3.848-8.972-8.592l0 0c0-4.744 4.021-8.592 8.972-8.592h16.287zm0-35.397c4.956 0 8.977 3.838 8.977 8.582l0 0c0 4.744-4.021 8.591-8.977 8.591H30.049c-4.951 0-8.972-3.847-8.972-8.591l0 0c0-4.744 4.021-8.582 8.972-8.582h16.287zm0-34.357c4.956 0 8.977 3.847 8.977 8.591l0 0c0 4.744-4.021 8.582-8.977 8.582H30.049c-4.951 0-8.972-3.838-8.972-8.582l0 0c0-4.744 4.021-8.591 8.972-8.591h16.287z" id="path9290" fill="#999"/><polygon points="128.919,125.635 102.089,125.635 115.386,84.259 " id="polygon9298" fill="#999"/></g></svg>